REM DIRINDEX 1\2,1\3,1\4,1\5,1\6
REM DIRNAME cjc091,folder01,folder02,folder03,folder04,folder05
TITLE ""
FILE "CD1-50.mp3" MP3
  TRACK 01 AUDIO
    TITLE "6:cjc091_0973"
    INDEX 01 00:00:00
  TRACK 02 AUDIO
    TITLE "0:"
    INDEX 01 00:02:10
  TRACK 03 AUDIO
    TITLE "2:cjc091_0974"
    INDEX 01 00:03:35
  TRACK 04 AUDIO
    TITLE "0:"
    INDEX 01 00:04:72
  TRACK 05 AUDIO
    TITLE "3:cjc091_0975"
    INDEX 01 00:05:16
  TRACK 06 AUDIO
    TITLE "0:"
    INDEX 01 00:06:39
  TRACK 07 AUDIO
    TITLE "4:cjc091_0976"
    INDEX 01 00:06:67
  TRACK 08 AUDIO
    TITLE "0:"
    INDEX 01 00:09:69
  TRACK 09 AUDIO
    TITLE "2:cjc091_0977"
    INDEX 01 00:11:07
  TRACK 10 AUDIO
    TITLE "0:"
    INDEX 01 00:13:10
  TRACK 11 AUDIO
    TITLE "3:cjc091_0978"
    INDEX 01 00:13:18
  TRACK 12 AUDIO
    TITLE "0:"
    INDEX 01 00:14:54
  TRACK 13 AUDIO
    TITLE "4:cjc091_0979"
    INDEX 01 00:15:03
  TRACK 14 AUDIO
    TITLE "0:"
    INDEX 01 00:17:74
  TRACK 15 AUDIO
    TITLE "2:cjc091_0980"
    INDEX 01 00:19:18
  TRACK 16 AUDIO
    TITLE "0:"
    INDEX 01 00:20:12
  TRACK 17 AUDIO
    TITLE "3:cjc091_0981"
    INDEX 01 00:20:36
  TRACK 18 AUDIO
    TITLE "0:"
    INDEX 01 00:22:15
  TRACK 19 AUDIO
    TITLE "4:cjc091_0982"
    INDEX 01 00:22:40
  TRACK 20 AUDIO
    TITLE "0:"
    INDEX 01 00:28:12
  TRACK 21 AUDIO
    TITLE "2:cjc091_0983"
    INDEX 01 00:29:29
  TRACK 22 AUDIO
    TITLE "0:"
    INDEX 01 00:30:46
  TRACK 23 AUDIO
    TITLE "3:cjc091_0984"
    INDEX 01 00:31:02
  TRACK 24 AUDIO
    TITLE "0:"
    INDEX 01 00:33:11
  TRACK 25 AUDIO
    TITLE "4:cjc091_0985"
    INDEX 01 00:33:30
  TRACK 26 AUDIO
    TITLE "0:"
    INDEX 01 00:37:54
  TRACK 27 AUDIO
    TITLE "2:cjc091_0986"
    INDEX 01 00:38:63
  TRACK 28 AUDIO
    TITLE "0:"
    INDEX 01 00:39:66
  TRACK 29 AUDIO
    TITLE "3:cjc091_0987"
    INDEX 01 00:40:11
  TRACK 30 AUDIO
    TITLE "0:"
    INDEX 01 00:42:04
  TRACK 31 AUDIO
    TITLE "4:cjc091_0988"
    INDEX 01 00:42:31
  TRACK 32 AUDIO
    TITLE "0:"
    INDEX 01 00:46:53
  TRACK 33 AUDIO
    TITLE "2:cjc091_0989"
    INDEX 01 00:47:58
  TRACK 34 AUDIO
    TITLE "0:"
    INDEX 01 00:49:02
  TRACK 35 AUDIO
    TITLE "3:cjc091_0990"
    INDEX 01 00:49:21
  TRACK 36 AUDIO
    TITLE "0:"
    INDEX 01 00:50:15
  TRACK 37 AUDIO
    TITLE "4:cjc091_0991"
    INDEX 01 00:50:35
  TRACK 38 AUDIO
    TITLE "0:"
    INDEX 01 00:55:36
  TRACK 39 AUDIO
    TITLE "2:cjc091_0992"
    INDEX 01 00:56:47
  TRACK 40 AUDIO
    TITLE "0:"
    INDEX 01 00:57:60
  TRACK 41 AUDIO
    TITLE "3:cjc091_0993"
    INDEX 01 00:58:09
  TRACK 42 AUDIO
    TITLE "0:"
    INDEX 01 00:59:57
  TRACK 43 AUDIO
    TITLE "4:cjc091_0994"
    INDEX 01 01:00:04
  TRACK 44 AUDIO
    TITLE "0:"
    INDEX 01 01:03:35
  TRACK 45 AUDIO
    TITLE "2:cjc091_0995"
    INDEX 01 01:04:43
  TRACK 46 AUDIO
    TITLE "0:"
    INDEX 01 01:05:56
  TRACK 47 AUDIO
    TITLE "3:cjc091_0996"
    INDEX 01 01:06:00
  TRACK 48 AUDIO
    TITLE "0:"
    INDEX 01 01:07:43
  TRACK 49 AUDIO
    TITLE "4:cjc091_0997"
    INDEX 01 01:07:63
  TRACK 50 AUDIO
    TITLE "0:"
    INDEX 01 01:13:40
  TRACK 51 AUDIO
    TITLE "2:cjc091_0998"
    INDEX 01 01:14:51
  TRACK 52 AUDIO
    TITLE "0:"
    INDEX 01 01:16:01
  TRACK 53 AUDIO
    TITLE "3:cjc091_0999"
    INDEX 01 01:16:16
  TRACK 54 AUDIO
    TITLE "0:"
    INDEX 01 01:18:06
  TRACK 55 AUDIO
    TITLE "4:cjc091_1000"
    INDEX 01 01:18:27
  TRACK 56 AUDIO
    TITLE "0:"
    INDEX 01 01:20:73
  TRACK 57 AUDIO
    TITLE "2:cjc091_1001"
    INDEX 01 01:22:17
  TRACK 58 AUDIO
    TITLE "0:"
    INDEX 01 01:23:56
  TRACK 59 AUDIO
    TITLE "3:cjc091_1002"
    INDEX 01 01:23:67
  TRACK 60 AUDIO
    TITLE "0:"
    INDEX 01 01:25:29
  TRACK 61 AUDIO
    TITLE "4:cjc091_1003"
    INDEX 01 01:25:51
  TRACK 62 AUDIO
    TITLE "0:"
    INDEX 01 01:28:41
  TRACK 63 AUDIO
    TITLE "2:cjc091_1004"
    INDEX 01 01:29:54
  TRACK 64 AUDIO
    TITLE "0:"
    INDEX 01 01:30:67
  TRACK 65 AUDIO
    TITLE "3:cjc091_1005"
    INDEX 01 01:31:06
  TRACK 66 AUDIO
    TITLE "0:"
    INDEX 01 01:32:08
  TRACK 67 AUDIO
    TITLE "4:cjc091_1006"
    INDEX 01 01:32:25
  TRACK 68 AUDIO
    TITLE "0:"
    INDEX 01 01:34:03
  TRACK 69 AUDIO
    TITLE "2:cjc091_1007"
    INDEX 01 01:35:20
  TRACK 70 AUDIO
    TITLE "0:"
    INDEX 01 01:36:50
  TRACK 71 AUDIO
    TITLE "3:cjc091_1008"
    INDEX 01 01:36:72
  TRACK 72 AUDIO
    TITLE "0:"
    INDEX 01 01:38:49
  TRACK 73 AUDIO
    TITLE "4:cjc091_1009"
    INDEX 01 01:38:73
  TRACK 74 AUDIO
    TITLE "0:"
    INDEX 01 01:42:33
  TRACK 75 AUDIO
    TITLE "2:cjc091_1010"
    INDEX 01 01:43:49
  TRACK 76 AUDIO
    TITLE "0:"
    INDEX 01 01:45:18
  TRACK 77 AUDIO
    TITLE "3:cjc091_1011"
    INDEX 01 01:45:34
  TRACK 78 AUDIO
    TITLE "0:"
    INDEX 01 01:48:03
  TRACK 79 AUDIO
    TITLE "4:cjc091_1012"
    INDEX 01 01:48:22
  TRACK 80 AUDIO
    TITLE "0:"
    INDEX 01 01:52:24
  TRACK 81 AUDIO
    TITLE "2:cjc091_1013"
    INDEX 01 01:53:37
  TRACK 82 AUDIO
    TITLE "0:"
    INDEX 01 01:54:62
  TRACK 83 AUDIO
    TITLE "3:cjc091_1014"
    INDEX 01 01:55:05
  TRACK 84 AUDIO
    TITLE "0:"
    INDEX 01 01:56:06
  TRACK 85 AUDIO
    TITLE "4:cjc091_1015"
    INDEX 01 01:56:36
  TRACK 86 AUDIO
    TITLE "0:"
    INDEX 01 01:58:44
  TRACK 87 AUDIO
    TITLE "2:cjc091_1016"
    INDEX 01 01:59:61
  TRACK 88 AUDIO
    TITLE "0:"
    INDEX 01 02:01:50
  TRACK 89 AUDIO
    TITLE "3:cjc091_1017"
    INDEX 01 02:01:62
  TRACK 90 AUDIO
    TITLE "0:"
    INDEX 01 02:03:34
  TRACK 91 AUDIO
    TITLE "4:cjc091_1018"
    INDEX 01 02:03:55
  TRACK 92 AUDIO
    TITLE "0:"
    INDEX 01 02:07:22
